<?xml version="1.0" encoding="utf-8"?>
<!-- Generator: Adobe Illustrator 18.1.1, SVG Export Plug-In . SVG Version: 6.00 Build 0)  -->
<svg version="1.1" id="Layer_1" xmlns="http://www.w3.org/2000/svg" xmlns:xlink="http://www.w3.org/1999/xlink" x="0px" y="0px"
	 viewBox="194 197 1033.1 400" enable-background="new 194 197 1033.1 400" xml:space="preserve">
<path fill="#FFF" d="M194,197v27.4h194.6V197H194z M416.2,197v27.4h277.4c0,0-28.3-27.4-65.9-27.4H416.2z M748,197v27.4h167.8
	l-10-27.4H748z M1036.1,197l-10,27.4h166.3V197H1036.1z M194,250.2v27.4h194.6v-27.4H194z M416.2,250.3v27.3h309.6
	c0,0-3.6-21.1-9.9-27.3H416.2z M748,250.3v27.3h186.2l-9.2-27.3H748z M1016.2,250.3l-9.2,27.3h185.5v-27.3H1016.2z M249.9,303.4
	v27.4h84.3v-27.4H249.9z M472.2,303.4v27.4h84.3v-27.4H472.2z M638.5,303.4v27.4h84.3c0,0,5.4-14.5,5.4-27.4H638.5z M804,303.4v27.4
	h149.5l-10-27.4H804z M997.9,303.4l-10,27.4h150.2v-27.4H997.9z M249.9,356.7v27.4h84.3v-27.4H249.9z M472.2,356.7v27.4h215.3
	c0,0,18-14,23.8-27.4H472.2z M804,356.7v27.4h84.3v-15.2l5.4,15.2H1048l5.7-15.2v15.2h84.3v-27.4H979.8l-8.4,23.2l-8.4-23.2H804z
	 M249.9,409.9v27.4h84.3v-27.4H249.9z M472.2,409.9v27.4h239.1c-5.7-13.3-23.8-27.4-23.8-27.4H472.2z M804,409.9v27.4h84.3v-27.4
	H804z M903.6,409.9l10.2,27.4h115.8l9.7-27.4H903.6z M1053.8,409.9v27.4h84.3v-27.4H1053.8z M249.9,463.1v27.4h84.3v-27.4H249.9z
	 M472.2,463.1v27.4h84.3v-27.4H472.2z M638.5,463.1v27.4h89.6c0-12.9-5.4-27.4-5.4-27.4H638.5z M804,463.1v27.4h84.3v-27.4H804z
	 M922.7,463.1l9.9,27.4h77.6l10-27.4H922.7z M1053.8,463.1v27.4h84.3v-27.4H1053.8z M195.5,516.4v27.4h194.6v-27.4H195.5z
	 M416.2,516.4v27.4h299.6c6.3-6.3,9.9-27.4,9.9-27.4H416.2z M749.5,516.4v27.4h138.7v-27.4H749.5z M941.9,516.4l10.2,27.4h39.5
	l9.5-27.4H941.9z M1053.8,516.4v27.4H1194v-27.4H1053.8z M195.5,569.6V597h194.6v-27.4H195.5z M416.2,569.6V597h211.5
	c37.5,0,65.9-27.3,65.9-27.3H416.2z M749.5,569.6V597h138.7v-27.4H749.5z M961.1,569.6l9.8,27.3l1.7,0l9.9-27.3H961.1z
	 M1053.8,569.6V597H1194v-27.4H1053.8z"/>
<g id="yectpc.tif">
	<g>
		<path fill="#FFF" d="M1214.6,597c-6.9,0-12.5-5.7-12.5-12.6c0-6.9,5.7-12.5,12.6-12.5c6.9,0,12.4,5.7,12.4,12.6
			C1227.1,591.4,1221.5,597,1214.6,597z M1204.6,584.4c0,5.5,4.4,10,9.9,10c5.5,0,10-4.4,10.1-9.9c0-5.6-4.4-10.1-10-10.1
			C1209.1,574.5,1204.6,578.9,1204.6,584.4z"/>
		<path fill="#FFF" d="M1217,584.6c2.3,1.5,2.6,4,4,6.2c-1.3,0-2.3,0-3.3,0c-0.2,0-0.5-0.3-0.6-0.6c-0.5-0.9-0.9-1.8-1.3-2.6
			c-0.8-1.6-1.4-1.8-3.3-1.6c0,1.6,0,3.2,0,4.9c-1.2,0-2.2,0-3.3,0c0-4.3,0-8.6,0-13.2c2.6,0.2,5.2,0.2,7.8,0.5
			c1.3,0.2,2.1,1.2,2.2,2.6c0.2,1.5-0.2,2.7-1.5,3.6C1217.5,584.3,1217.3,584.4,1217,584.6z M1212.5,583.4c1.1-0.1,2.4,0.5,3.1-0.8
			c0.3-0.5,0.3-1.5-0.1-1.9c-0.7-1-1.9-0.6-3-0.6C1212.5,581.2,1212.5,582.3,1212.5,583.4z"/>
	</g>
</g>
</svg>
